<svg width="160" height="160" viewBox="0 0 160 160" fill="none" xmlns="http://www.w3.org/2000/svg">
<path d="M65 37.5L75.5 24.5L92.5 23.5L105 30L113 40L120 45L123 56L120 65.5L108 71L99.5 69L83.5 72.5L71.5 67L69.5 71C65.3333 71.1667 56.7 71.4 55.5 71C54.3 70.6 48.6667 67.1667 46 65.5L41 53L47.5 40L65 37.5Z" fill="#E56FB4"/>
<path d="M58 107L51.5 72.5L74 68L116 71L108.5 110L58 107Z" fill="#F2CFE3" stroke="black"/>
<path fill-rule="evenodd" clip-rule="evenodd" d="M99.489 78.1833C97.0764 77.8228 94.808 79.5014 94.4484 81.9113C93.7375 86.6633 93.0273 91.416 92.317 96.1692C91.9562 98.579 93.6364 100.846 96.0485 101.206C98.4611 101.565 100.729 99.8875 101.089 97.4777C101.799 92.7251 102.51 87.9718 103.22 83.2192C103.58 80.8088 101.901 78.5421 99.489 78.1833ZM66.0645 78.1833C68.4765 77.8228 70.7454 79.5014 71.1051 81.9113C71.8159 86.6633 72.5262 91.416 73.2364 96.1692C73.5973 98.579 71.9182 100.846 69.505 101.206C67.0924 101.565 64.8241 99.8875 64.4644 97.4777C63.7536 92.7251 63.0433 87.9718 62.333 83.2198C61.9733 80.8088 63.6524 78.5421 66.0645 78.1833ZM82.8739 75.1076C83.9171 75.2279 84.982 75.2887 86.0644 75.2887C90.4459 75.2887 94.5467 74.2782 98.0559 72.5172C100.961 74.1959 104.332 75.1564 107.93 75.1564C108.524 75.1564 109.112 75.1291 109.692 75.0769C108.47 84.023 107.247 92.9686 106.025 101.915C105.752 103.912 105.409 104.851 103.353 104.851H62.3955C60.3392 104.851 59.9954 103.912 59.7232 101.915C58.497 92.9379 57.2697 83.96 56.0429 74.9827C56.9282 75.0973 57.8305 75.1564 58.7465 75.1564C63.4808 75.1564 67.8452 73.5771 71.3426 70.9164C74.5865 73.1207 78.5424 74.612 82.8739 75.1076ZM91.484 66.3562C89.7993 66.841 87.9725 67.1055 86.0644 67.1055C84.97 67.1055 83.9029 67.0181 82.8739 66.8529C80.6232 66.4901 78.5555 65.7516 76.7912 64.7297C69.9459 60.8019 71.9761 60.7111 65.4838 65.0266C63.5342 66.2591 61.2239 66.9727 58.7459 66.9727C51.7773 66.9727 46.1242 61.3259 46.1242 54.3627C46.1242 47.3995 51.5262 42.0059 58.2805 41.7607C58.4351 41.7556 58.5896 41.7528 58.7459 41.7528C69.351 41.7528 62.7768 46.1881 69.3567 36.4705C72.4421 31.9142 77.2645 28.6268 82.8739 27.5573C84.1615 27.312 85.4922 27.1837 86.8508 27.1837C93.9529 27.1837 100.238 30.6909 104.064 36.0657C104.655 36.8979 105.189 37.7767 105.658 38.6924C106.001 39.3611 106.325 40.0429 106.578 40.757C107.785 44.17 107.201 43.6931 110.27 44.1086C111.057 44.2154 111.8 44.5077 112.513 44.8148C113.875 45.403 115.101 46.2465 116.132 47.2837C118.208 49.3711 119.49 52.247 119.49 55.4214C119.49 61.7994 114.313 66.9715 107.93 66.9715C107.069 66.9715 106.23 66.8767 105.423 66.6985C96.4292 64.2285 101.823 62.87 91.4846 66.3545L91.484 66.3562ZM82.9256 78.0561C80.4868 78.0317 78.4708 80.0055 78.4464 82.442C78.3964 87.2469 78.3487 92.0518 78.2998 96.8578C78.2754 99.2943 80.2499 101.308 82.6898 101.333C85.1286 101.358 87.144 99.3845 87.169 96.9469C87.2179 92.142 87.2673 87.3377 87.3162 82.5323C87.3406 80.0947 85.3655 78.0817 82.9256 78.0561ZM58.7459 33.569C47.2532 33.569 37.9329 42.8802 37.9329 54.3627C37.9329 61.6977 41.7359 68.1472 47.4794 71.8485C47.4356 71.8474 47.3908 71.8462 47.3459 71.8451C48.7658 82.2365 50.1858 92.6291 51.6057 103.021C52.4467 109.185 56.131 113.036 62.395 113.036H103.353C109.616 113.036 113.301 109.184 114.141 103.021C115.546 92.7421 116.951 82.4625 118.356 72.1834C123.954 68.6996 127.682 62.4953 127.682 55.4226C127.682 46.5315 121.794 39.0125 113.703 36.5443C109.176 26.217 98.8554 19 86.8508 19C85.5024 19 84.1745 19.0908 82.8739 19.2668C73.6802 20.5146 65.84 26.0245 61.4137 33.7382C60.5409 33.6264 59.6505 33.569 58.7459 33.569Z" fill="#354898"/>
<path d="M90 35C91.6667 35.1667 95.5 36.2 97.5 39C99.5 41.8 100 44.5 100 45.5" stroke="white" stroke-width="4" stroke-linecap="round" stroke-linejoin="round"/>
<path fill-rule="evenodd" clip-rule="evenodd" d="M95.4467 129.184C98.3673 129.184 100.736 131.55 100.736 134.468C100.736 137.386 98.3673 139.752 95.4467 139.752C92.5261 139.752 90.1578 137.386 90.1578 134.468C90.1578 131.55 92.5261 129.184 95.4467 129.184ZM65.6053 129.184C68.5259 129.184 70.8948 131.55 70.8948 134.468C70.8948 137.386 68.5259 139.752 65.6053 139.752C62.6847 139.752 60.3164 137.386 60.3164 134.468C60.3164 131.55 62.6847 129.184 65.6053 129.184ZM61.3954 119.449C52.5444 119.449 46.8219 113.678 45.6543 105.115L42.2365 80.1131V80.1131C41.6795 76.0377 38.1983 73 34.085 73H23.1019C20.8456 73 19 74.8444 19 77.0987C19 79.3529 20.8461 81.1974 23.1019 81.1974H28.6857C30.4591 81.2013 32.2337 81.2064 34.0082 81.2115L37.4283 106.237C39.1568 118.911 48.3822 127.743 61.3954 127.743C73.6523 127.743 85.9081 127.675 98.165 127.646H103.748C106.004 127.646 107.85 125.803 107.85 123.548C107.85 121.293 106.005 119.449 103.748 119.449H61.3954Z" fill="#354898"/>
</svg>
